<?xml version="1.0" encoding="UTF-8" standalone="no"?>
<!-- Created with Inkscape (http://www.inkscape.org/) -->

<svg
   width="74.083481mm"
   height="86.023209mm"
   viewBox="0 0 74.083481 86.023209"
   version="1.1"
   id="svg5"
   xmlns:inkscape="http://www.inkscape.org/namespaces/inkscape"
   xmlns:sodipodi="http://sodipodi.sourceforge.net/DTD/sodipodi-0.dtd"
   xmlns="http://www.w3.org/2000/svg"
   xmlns:svg="http://www.w3.org/2000/svg">
  <sodipodi:namedview
     id="namedview7"
     pagecolor="#ffffff"
     bordercolor="#111111"
     borderopacity="1"
     inkscape:showpageshadow="0"
     inkscape:pageopacity="0"
     inkscape:pagecheckerboard="1"
     inkscape:deskcolor="#d1d1d1"
     inkscape:document-units="mm"
     showgrid="false" />
  <defs
     id="defs2" />
  <g
     inkscape:groupmode="layer"
     id="layer3"
     inkscape:label="O"
     transform="translate(-13.134502,-11.749967)">
    <path
       style="fill:#000000;stroke-width:0.195458"
       id="path311"
       d="m 61.88419,41.968038 c 0.46669,0.146938 0.8133,0.483365 1.12292,0.847379 0.10519,0.123702 0.22155,0.429604 0.31411,0.573284 0.81871,1.782202 -0.008,-0.09652 0.60314,1.509255 0.16515,0.433822 0.37617,0.850317 0.52594,1.289617 0.48425,1.420368 0.70248,2.924621 0.9883,4.391634 0.34192,1.994991 0.37673,4.017391 0.34779,6.034611 -0.0161,1.74278 0.10385,3.48198 0.14653,5.22371 0.16265,3.10807 -0.83135,6.05049 -1.84991,8.94486 -0.81017,1.81508 -1.65523,3.79131 -3.31079,5.01786 -0.49657,0.3679 -1.39719,0.75043 -1.9151,0.99452 -3.25791,1.28928 -6.81042,1.52968 -10.20867,0.70227 -2.33319,-0.76656 -4.53818,-1.94664 -6.44068,-3.49948 -0.46647,-0.38075 -0.89843,-0.80141 -1.34764,-1.2021 -3.01624,-2.87197 -4.72417,-6.47067 -6.06388,-10.33261 -0.90566,-2.7974 -0.88046,-5.73546 -1.12442,-8.62814 -0.26294,-2.593006 0.0937,-5.282567 0.7867,-7.793399 0.40755,-1.476688 0.83579,-2.425195 1.40363,-3.828375 1.18821,-2.530309 2.79903,-4.793204 4.89085,-6.653674 2.59054,-1.945573 5.67968,-2.531568 8.83764,-2.806669 1.21103,0.0044 2.44652,-0.139439 3.65526,0.0169 0.14099,0.01822 0.27077,0.08636 0.40574,0.13077 0.42116,0.138555 0.47647,0.07455 0.19684,0.188131 -0.97405,-0.07664 0.18188,0.147545 0.3963,0.329491 -0.008,2.2e-5 -0.0158,4.4e-5 -0.0237,5.5e-5 0.0712,0.06626 0.14475,0.129919 0.21345,0.198623 0.59289,0.593007 -0.13416,-0.113641 -0.23495,-0.05102 -0.13795,0.0857 0.22931,0.22939 0.3419,0.34609 0.0885,0.09177 0.17417,0.18611 0.26126,0.279176 0.0481,0.04683 0.19281,0.18685 0.14433,0.140422 -0.72299,-0.692302 -0.7655,-0.756312 -1.3405,-1.507919 -0.0531,-0.06947 0.10029,0.143237 0.15034,0.214989 0.14252,0.204575 0.28479,0.409327 0.42718,0.614002 -0.0248,-0.0349 -0.0983,-0.140466 -0.0745,-0.104806 0.5782,0.868208 1.02883,1.651544 1.70646,2.470375 0.26326,0.318116 0.5696,0.598529 0.8544,0.897805 0.73336,0.747167 1.56386,1.394632 2.44431,1.962183 1.27544,0.875176 13.73603,-17.040901 12.46061,-17.916077 v 0 c -0.48936,-0.397643 0.61671,0.522438 0.61959,0.531471 0.64447,0.711265 0.40162,0.401332 1.07857,1.400243 0.0955,0.140963 -0.19983,-0.275874 -0.29837,-0.414783 -1.36418,-1.922989 0.98885,1.512414 -0.6519,-0.956249 -0.78904,-1.379148 -1.80189,-2.643685 -3.02593,-3.669852 -0.59414,-0.388542 -1.09415,-0.849311 -1.67454,-1.27622 -0.95787,-0.704561 -2.04125,-1.243796 -3.00991,-1.931636 -0.92196,-0.487109 -1.62166,-0.881913 -2.59054,-1.288126 -1.6465,-0.690303 -3.41768,-1.104755 -5.16275,-1.44529 -0.5645,-0.04925 -1.12725,-0.125778 -1.69348,-0.147887 -3.0185,-0.117849 -6.0281,0.561819 -8.98036,1.06218 -4.20432,0.924288 -8.4301,1.910256 -12.35095,3.739295 -2.13511,0.996018 -3.93568,2.280643 -5.89778,3.565488 -1.02965,0.830979 -2.12871,1.583636 -3.08892,2.492937 -0.66692,0.631562 -1.2053,1.385831 -1.770391,2.108757 -0.618079,0.790736 -1.232232,1.587578 -1.77714,2.429734 -1.620299,2.504146 -2.730265,5.305779 -3.941127,8.011972 -0.406928,1.085096 -0.861318,2.153771 -1.220777,3.255279 -0.402076,1.232089 -1.493484,5.508057 -1.729395,6.688307 -0.637519,3.189529 -0.847003,6.459938 -1.274779,9.678017 0.01837,0.76173 0.0024,1.52506 0.05509,2.28521 0.299492,4.3236 1.521785,8.5493 3.04999,12.58426 1.014818,2.40345 1.537349,3.80559 2.813923,6.12633 0.730817,1.32858 2.892918,4.65461 3.719855,5.85093 0.777601,1.12495 1.536731,2.26645 2.399241,3.32858 0.78964,0.97242 1.69887,1.84272 2.5483,2.7641 1.80539,1.54284 3.36635,2.96624 5.36188,4.28818 0.84256,0.55814 1.74754,1.01826 2.64097,1.49194 3.06413,1.62454 6.2325,3.09828 9.67975,3.70901 1.23196,0.17307 2.45447,0.43628 3.69589,0.5192 1.05039,0.0701 2.10698,0.004 3.15768,-0.0614 5.26979,-0.32806 10.41535,-1.64634 15.3556,-3.45375 1.38689,-0.69633 2.84386,-1.26934 4.16068,-2.08897 3.45567,-2.15097 6.2026,-5.23988 8.31637,-8.67284 0.91767,-1.49037 1.96311,-3.97568 2.67535,-5.57423 0.39346,-0.96896 0.82144,-1.92478 1.18036,-2.90687 0.62618,-1.71344 1.0882,-3.48425 1.56005,-5.24305 0.38223,-1.42477 1.03915,-3.86006 1.29746,-5.29964 0.10829,-0.60362 0.13192,-1.21923 0.19788,-1.82885 0.16732,-2.35491 0.30721,-4.71866 0.14565,-7.07841 -0.27216,-3.02399 -0.80531,-6.01 -1.48645,-8.969574 C 85.22453,44.452764 84.70823,42.370711 84.19157,40.2764 84.01446,39.558509 83.88206,38.828945 83.67165,38.119978 83.23264,36.640784 82.73329,35.551093 82.14207,34.142457 81.78963,33.409249 81.47924,32.654605 81.08479,31.942832 79.64131,29.338198 77.49265,27.256631 75.44224,25.134313 74.24386,24.182062 60.68578,41.015737 61.88416,41.967988 Z" />
  </g>
</svg>
