<?xml version="1.0" encoding="UTF-8" standalone="no"?>
<!-- Created with Inkscape (http://www.inkscape.org/) -->

<svg
   width="79.330032mm"
   height="84.055748mm"
   viewBox="0 0 79.330032 84.055748"
   version="1.1"
   id="svg5"
   xmlns:inkscape="http://www.inkscape.org/namespaces/inkscape"
   xmlns:sodipodi="http://sodipodi.sourceforge.net/DTD/sodipodi-0.dtd"
   xmlns="http://www.w3.org/2000/svg"
   xmlns:svg="http://www.w3.org/2000/svg">
  <sodipodi:namedview
     id="namedview7"
     pagecolor="#ffffff"
     bordercolor="#111111"
     borderopacity="1"
     inkscape:showpageshadow="0"
     inkscape:pageopacity="0"
     inkscape:pagecheckerboard="1"
     inkscape:deskcolor="#d1d1d1"
     inkscape:document-units="mm"
     showgrid="false" />
  <defs
     id="defs2" />
  <g
     inkscape:groupmode="layer"
     id="layer3"
     inkscape:label="O"
     transform="translate(-89.543734,-62.324221)">
    <path
       style="fill:#000000;stroke-width:0.195458"
       id="path311"
       d="m 61.88419,41.968038 c 0.46669,0.146938 0.8133,0.483365 1.12292,0.847379 0.10519,0.123702 0.22155,0.429604 0.31411,0.573284 0.81871,1.782202 -0.008,-0.09652 0.60314,1.509255 0.16515,0.433822 0.37617,0.850317 0.52594,1.289617 0.48425,1.420368 0.70248,2.924621 0.9883,4.391634 0.34192,1.994991 0.37673,4.017391 0.34779,6.034611 -0.0161,1.74278 0.10385,3.48198 0.14653,5.22371 0.16265,3.10807 -0.83135,6.05049 -1.84991,8.94486 -0.81017,1.81508 -1.65523,3.79131 -3.31079,5.01786 -0.49657,0.3679 -1.39719,0.75043 -1.9151,0.99452 -3.25791,1.28928 -6.81042,1.52968 -10.20867,0.70227 -2.33319,-0.76656 -4.53818,-1.94664 -6.44068,-3.49948 -0.46647,-0.38075 -0.89843,-0.80141 -1.34764,-1.2021 -3.01624,-2.87197 -4.72417,-6.47067 -6.06388,-10.33261 -0.90566,-2.7974 -0.88046,-5.73546 -1.12442,-8.62814 -0.26294,-2.593006 0.0937,-5.282567 0.7867,-7.793399 0.40755,-1.476688 0.83579,-2.425195 1.40363,-3.828375 1.18821,-2.530309 2.79903,-4.793204 4.89085,-6.653674 2.59054,-1.945573 5.67968,-2.531568 8.83764,-2.806669 1.21103,0.0044 2.44652,-0.139439 3.65526,0.0169 0.14099,0.01822 0.27077,0.08636 0.40574,0.13077 0.42116,0.138555 0.47647,0.07455 0.19684,0.188131 -0.97405,-0.07664 0.18188,0.147545 0.3963,0.329491 -0.008,2.2e-5 -0.0158,4.4e-5 -0.0237,5.5e-5 0.0712,0.06626 0.14475,0.129919 0.21345,0.198623 0.59289,0.593007 -0.13416,-0.113641 -0.23495,-0.05102 -0.13795,0.0857 0.22931,0.22939 0.3419,0.34609 0.0885,0.09177 0.17417,0.18611 0.26126,0.279176 0.0481,0.04683 0.19281,0.18685 0.14433,0.140422 -0.72299,-0.692302 -0.7655,-0.756312 -1.3405,-1.507919 -0.0531,-0.06947 0.10029,0.143237 0.15034,0.214989 0.14252,0.204575 0.28479,0.409327 0.42718,0.614002 -0.0248,-0.0349 -0.0983,-0.140466 -0.0745,-0.104806 0.5782,0.868208 1.02883,1.651544 1.70646,2.470375 0.26326,0.318116 0.5696,0.598529 0.8544,0.897805 0.73336,0.747167 1.56386,1.394632 2.44431,1.962183 1.27544,0.875176 13.73603,-17.040901 12.46061,-17.916077 v 0 c -0.48936,-0.397643 0.61671,0.522438 0.61959,0.531471 0.64447,0.711265 0.40162,0.401332 1.07857,1.400243 0.0955,0.140963 -0.19983,-0.275874 -0.29837,-0.414783 -1.36418,-1.922989 0.98885,1.512414 -0.6519,-0.956249 -0.78904,-1.379148 -1.80189,-2.643685 -3.02593,-3.669852 -0.59414,-0.388542 -1.09415,-0.849311 -1.67454,-1.27622 -0.95787,-0.704561 -2.04125,-1.243796 -3.00991,-1.931636 -0.92196,-0.487109 -1.62166,-0.881913 -2.59054,-1.288126 -1.6465,-0.690303 -3.41768,-1.104755 -5.16275,-1.44529 -0.5645,-0.04925 -1.12725,-0.125778 -1.69348,-0.147887 -3.0185,-0.117849 -6.0281,0.561819 -8.98036,1.06218 -4.20432,0.924288 -8.4301,1.910256 -12.35095,3.739295 -2.13511,0.996018 -3.93568,2.280643 -5.89778,3.565488 -1.02965,0.830979 -2.12871,1.583636 -3.08892,2.492937 -0.66692,0.631562 -1.2053,1.385831 -1.770391,2.108757 -0.618079,0.790736 -1.232232,1.587578 -1.77714,2.429734 -1.620299,2.504146 -2.730265,5.305779 -3.941127,8.011972 -0.406928,1.085096 -0.861318,2.153771 -1.220777,3.255279 -0.402076,1.232089 -1.493484,5.508057 -1.729395,6.688307 -0.637519,3.189529 -0.847003,6.459938 -1.274779,9.678017 0.01837,0.76173 0.0024,1.52506 0.05509,2.28521 0.299492,4.3236 1.521785,8.5493 3.04999,12.58426 1.014818,2.40345 1.537349,3.80559 2.813923,6.12633 0.730817,1.32858 2.892918,4.65461 3.719855,5.85093 0.777601,1.12495 1.536731,2.26645 2.399241,3.32858 0.78964,0.97242 1.69887,1.84272 2.5483,2.7641 1.80539,1.54284 3.36635,2.96624 5.36188,4.28818 0.84256,0.55814 1.74754,1.01826 2.64097,1.49194 3.06413,1.62454 6.2325,3.09828 9.67975,3.70901 1.23196,0.17307 2.45447,0.43628 3.69589,0.5192 1.05039,0.0701 2.10698,0.004 3.15768,-0.0614 5.26979,-0.32806 10.41535,-1.64634 15.3556,-3.45375 1.38689,-0.69633 2.84386,-1.26934 4.16068,-2.08897 3.45567,-2.15097 6.2026,-5.23988 8.31637,-8.67284 0.91767,-1.49037 1.96311,-3.97568 2.67535,-5.57423 0.39346,-0.96896 0.82144,-1.92478 1.18036,-2.90687 0.62618,-1.71344 1.0882,-3.48425 1.56005,-5.24305 0.38223,-1.42477 1.03915,-3.86006 1.29746,-5.29964 0.10829,-0.60362 0.13192,-1.21923 0.19788,-1.82885 0.16732,-2.35491 0.30721,-4.71866 0.14565,-7.07841 -0.27216,-3.02399 -0.80531,-6.01 -1.48645,-8.969574 C 85.22453,44.452764 84.70823,42.370711 84.19157,40.2764 84.01446,39.558509 83.88206,38.828945 83.67165,38.119978 83.23264,36.640784 82.73329,35.551093 82.14207,34.142457 81.78963,33.409249 81.47924,32.654605 81.08479,31.942832 79.64131,29.338198 77.49265,27.256631 75.44224,25.134313 74.24386,24.182062 60.68578,41.015737 61.88416,41.967988 Z" />
  </g>
  <g
     inkscape:groupmode="layer"
     id="layer2"
     inkscape:label="X"
     transform="translate(-89.543734,-62.324221)">
    <path
       style="fill:#000000;stroke-width:0.176389"
       id="path255"
       d="m 89.746705,88.021614 c 0.48723,-0.122423 0.961361,-0.41256 1.461691,-0.367273 2.3149,0.209528 4.751617,1.505196 6.7613,2.457868 1.544259,0.732041 3.119404,1.40953 4.603204,2.257446 4.25355,2.430674 6.35395,4.233664 10.27452,7.210327 1.71864,1.406628 3.43608,2.814718 5.15592,4.219878 1.80255,1.47273 3.6612,2.87903 5.41124,4.41379 1.7,1.49088 3.31912,3.07252 4.93208,4.65717 2.61748,2.57155 5.76479,5.88307 8.15099,8.71176 1.03409,1.22584 1.98471,2.51971 2.97707,3.77957 2.49531,3.44458 1.96383,2.57425 3.96117,5.77511 0.37933,0.6079 1.68711,2.81536 2.1906,3.53341 0.25332,0.36129 1.37196,1.76174 1.75656,2.24584 0.55652,0.63282 1.18009,1.20582 1.59481,1.9452 1.28588,1.40262 21.12191,-16.78252 19.83603,-18.18514 v 0 c -0.85347,-0.80141 -1.72727,-1.57855 -2.57427,-2.38676 -0.32688,-0.27346 -0.64017,-0.56404 -0.98065,-0.82038 -0.29116,-0.21921 -0.61073,-0.39799 -0.91134,-0.60405 -1.12781,-0.77312 -2.26492,-1.53323 -3.37488,-2.33177 -0.89934,-0.647 -1.78337,-1.31517 -2.66528,-1.98575 -1.10031,-0.83665 -2.18743,-1.6905 -3.28114,-2.53575 -4.62235,-3.80466 -9.14164,-7.71862 -13.68467,-11.617419 -1.78987,-1.536063 -3.61637,-3.03003 -5.37818,-4.598205 -1.85026,-1.646896 -3.60027,-3.40442 -5.45597,-5.045183 -1.75057,-1.547804 -3.57332,-3.011998 -5.35998,-4.517998 -3.88882,-3.273425 -6.78862,-5.678435 -10.59876,-9.026451 -1.61219,-1.416646 -3.14949,-2.918836 -4.79299,-4.29903 -1.23459,-1.036796 -2.58565,-1.9281 -3.8352,-2.946818 -2.51682,-2.051872 -3.42142,-3.003859 -5.66314,-5.16515 -1.783731,-0.74322 -12.294466,24.482538 -10.510735,25.225758 z" />
    <path
       style="fill:#000000;stroke-width:0.176389"
       id="path241"
       d="m 143.68802,62.493088 c 0.29694,0.125084 0.92668,0.05505 0.8908,0.375253 -0.13157,1.174411 -0.79189,2.23157 -1.30226,3.297433 -2.62251,5.476775 -2.75363,4.605949 -6.09715,10.313879 -8.80392,15.02968 -0.358,2.290929 -10.85659,17.326179 -6.05837,7.721198 -12.09208,15.472018 -18.86158,22.593368 -4.32959,4.55464 -8.996832,8.75554 -13.706169,12.9066 -0.941916,0.76911 -1.883833,1.53821 -2.82575,2.30732 -1.038338,1.30921 17.476689,15.99354 18.515029,14.68433 v 0 c 0.52107,-1.07553 1.04214,-2.15106 1.56321,-3.22659 0.76826,-1.41938 1.50835,-2.85438 2.30479,-4.25815 2.11024,-3.71942 4.99062,-8.46136 7.3135,-11.94196 5.46146,-8.18343 11.54147,-15.92337 17.46324,-23.77145 2.32706,-2.60862 4.49867,-5.364705 6.98117,-7.825862 2.25846,-2.239049 4.84382,-4.123356 7.21235,-6.24564 1.72531,-1.545934 3.34953,-3.201921 5.06675,-4.756843 1.40255,-1.269995 2.83638,-2.505842 4.29069,-3.716219 7.76517,-6.462691 -1.14409,1.373704 6.77135,-5.699961 0.8741,-1.748208 -23.84928,-14.109895 -24.72338,-12.361687 z" />
  </g>
</svg>
